<svg id="Layer_1" enable-background="new 0 0 512 512" height="512" viewBox="0 0 512 512" width="512" xmlns="http://www.w3.org/2000/svg"><path d="m70.458 422.652h360.083c2.772 0 5.398.598 7.787 1.639 35.677-42.558 57.169-97.41 57.169-157.289 0-135.309-109.689-244.998-244.998-244.998-135.309 0-244.998 109.689-244.998 244.998 0 59.879 21.493 114.73 57.169 157.289 2.39-1.041 5.015-1.639 7.788-1.639z" fill="#7255ce"/><path d="m439.429 210.209v138.072c37.221-1.07 67.07-31.557 67.07-69.036s-29.849-67.966-67.07-69.036z" fill="#ff4155"/><path d="m439.429 254.983v93.298c37.221-1.07 67.07-31.557 67.07-69.036 0-4.755-.485-9.397-1.4-13.881-9.484 34.567-65.67 29.878-65.67-10.381z" fill="#e80054"/><path d="m473.965 351.341c-4.254 0-7.702-3.448-7.702-7.702v-189.427c0-4.254 3.448-7.702 7.702-7.702s7.702 3.448 7.702 7.702v189.428c0 4.254-3.448 7.701-7.702 7.701z" fill="#e9efff"/><path d="m473.965 294.841c-4.254 0-7.702-3.447-7.702-7.702v56.5c0 4.254 3.448 7.702 7.702 7.702s7.702-3.447 7.702-7.702v-56.5c0 4.255-3.448 7.702-7.702 7.702z" fill="#acbbef"/><ellipse cx="473.964" cy="135.13" fill="#ff4155" rx="18.881" ry="18.881" transform="matrix(.922 -.387 .387 .922 -15.356 194.021)"/><path d="m485.606 130.368c0 3.491-2.83 6.321-6.321 6.321s-6.321-2.83-6.321-6.321 2.83-6.321 6.321-6.321 6.321 2.831 6.321 6.321z" fill="#ff7186"/><path d="m430.541 398.897h-360.083c-.449 0-.892-.023-1.334-.056v24.361c.442-.033.885-.056 1.334-.056h360.083c.449 0 .892.023 1.334.056v-24.361c-.442.034-.885.056-1.334.056z" fill="#ffb332"/><path d="m222.237 411.022c0-4.99 2.446-9.397 6.193-12.124h-157.972c-.449 0-.892-.023-1.334-.056v24.361c.442-.033.885-.056 1.334-.056h157.973c-3.748-2.728-6.194-7.136-6.194-12.125z" fill="#ff9100"/><path d="m70.458 177.056h360.083c.937 0 1.857.07 2.759.197-2.994-98.248-83.84-177.253-182.8-177.253s-179.808 79.005-182.802 177.253c.902-.127 1.822-.197 2.76-.197z" fill="#ff7186"/><path d="m201.031 157.277-33.046-53.147c-22.96-30.155 5.558-60.169 5.558-60.169-20.918-1.812-13.709-19.656-13.605-19.912-53.576 30.667-90.242 87.647-92.24 153.204.902-.127 1.822-.197 2.759-.197h129.804c.446-1.126.77-1.78.77-1.78-10.087-10.088 0-17.999 0-17.999z" fill="#ff4155"/><path d="m385.626 99.48-57.851-55.345c-22.885-12.798-49.243-20.098-77.275-20.098l-76.957 19.923c-23.741 13.204-43.757 32.319-58.06 55.34v.001l-23.725 77.754h131.201c.535-14.729 12.683-26.547 27.54-26.547s27.004 11.818 27.54 26.547h131.201c-1.031-28.373-9.547-54.867-23.614-77.575z" fill="#dae2fe"/><path d="m200.262 177.055c.446-1.126.77-1.78.77-1.78-10.087-10.087 0-17.998 0-17.998l-33.046-53.147c-22.954-30.147 5.541-60.152 5.557-60.169-23.741 13.204-43.757 32.319-58.059 55.34l-23.725 77.754z" fill="#bec8f7"/><path d="m250.499 150.509.001-126.472c-27.903 0-54.145 7.236-76.956 19.924l63.537 110.05c3.973-2.226 8.548-3.502 13.418-3.502z" fill="#ff4155"/><path d="m115.483 99.301c-14.133 22.749-22.691 49.307-23.725 77.755h131.201c.178-4.886 1.639-9.447 4.047-13.367z" fill="#ff4155"/><path d="m200.262 177.055c.446-1.126.77-1.78.77-1.78-10.087-10.087 0-17.998 0-17.998l-8.327-13.393-77.221-44.583c-14.133 22.749-22.691 49.307-23.725 77.754z" fill="#e80054"/><path d="m274.101 163.869 111.525-64.389c-14.246-22.998-34.188-42.113-57.851-55.345l-63.54 110.054c4.051 2.339 7.451 5.679 9.866 9.68z" fill="#ff4155"/><path d="m350.615 116.07c1.581-1.541.709-4.226-1.476-4.544l-18.061-2.624c-.867-.126-1.618-.671-2.006-1.457l-8.077-16.366c-.977-1.98-3.8-1.98-4.778 0l-8.077 16.366c-.388.786-1.138 1.331-2.006 1.457l-18.061 2.624c-2.185.317-3.057 3.003-1.476 4.544l13.069 12.739c.628.612.914 1.494.766 2.358l-3.085 17.988c-.373 2.176 1.911 3.836 3.865 2.808l16.154-8.493c.776-.408 1.703-.408 2.479 0l16.155 8.493c1.954 1.027 4.238-.632 3.865-2.808l-3.085-17.988c-.148-.864.138-1.746.766-2.358z" fill="#ffb332"/><path d="m279.951 177.056c-.572-15.752-13.563-28.39-29.452-28.39s-28.88 12.639-29.452 28.39z" fill="#e80054"/><path d="m430.541 175.275h-360.083c-10.828 0-19.606 8.778-19.606 19.605v185.426c0 10.828 8.778 19.605 19.606 19.605h360.083c10.828 0 19.605-8.778 19.605-19.605v-185.425c0-10.828-8.777-19.606-19.605-19.606z" fill="#ffc839"/><path d="m70.458 175.275c-10.828 0-19.605 8.777-19.605 19.605v185.426c0 10.828 8.778 19.605 19.605 19.605h159.053v-16.324c-28.935-5.364-18.389-35.256-18.389-35.256v-138.173c-22.49-9.961-10.091-34.882-10.091-34.882h-130.573z" fill="#ffb332"/><path d="m175.958 210.158h-78.754c-9.71 0-17.582 7.872-17.582 17.582v103.01c0 9.71 7.872 17.582 17.582 17.582h78.755c9.71 0 17.582-7.872 17.582-17.582v-103.011c-.001-9.71-7.872-17.581-17.583-17.581z" fill="#ffc839"/><path d="m289.877 210.158h-78.755c-9.71 0-17.582 7.872-17.582 17.582v103.01c0 9.71 7.872 17.582 17.582 17.582h78.755c9.71 0 17.582-7.872 17.582-17.582v-103.011c-.001-9.71-7.872-17.581-17.582-17.581z" fill="#ffdd40"/><path d="m403.795 210.158h-78.755c-9.71 0-17.582 7.872-17.582 17.582v103.01c0 9.71 7.871 17.582 17.582 17.582h78.755c9.71 0 17.582-7.872 17.582-17.582v-103.011c0-9.71-7.872-17.581-17.582-17.581z" fill="#ffdd40"/><path d="m430.541 421.652h-360.083c-3.011 0-5.853.699-8.402 1.912 33.704 40.522 80.227 70.005 133.347 82.215l109.386.174c53.454-12.096 100.28-41.662 134.154-82.389-2.55-1.214-5.391-1.912-8.402-1.912z" fill="#e9efff"/><path d="m226.676 421.652h-156.218c-3.011 0-5.853.699-8.402 1.912 33.704 40.522 80.227 70.005 133.347 82.215l31.274.05v-45.577c-6.051-4.724-4.341-9.77-2.336-12.781 1.142-1.715 1.073-3.935-.126-5.611-7.836-10.952 2.461-20.208 2.461-20.208z" fill="#acbbef"/><path d="m340.52 444.739h-180.042c-5.414 0-9.803 4.389-9.803 9.803v26.421c0 5.414 4.389 9.803 9.803 9.803h180.042c5.414 0 9.803-4.389 9.803-9.803v-26.421c0-5.415-4.389-9.803-9.803-9.803z" fill="#7255ce"/><path d="m225.151 444.739h-64.673c-5.414 0-9.803 4.389-9.803 9.803v26.42c0 5.414 4.389 9.803 9.803 9.803h66.198v-30.513c-6.051-4.724-4.341-9.77-2.336-12.781.555-.832.818-1.783.811-2.732z" fill="#5c45bf"/><g fill="#ff9100"><path d="m149.341 379.698h-25.521c-5.875 0-10.683 4.807-10.683 10.683v9.53h46.887v-9.53c.001-5.875-4.807-10.683-10.683-10.683z"/><path d="m263.26 379.698h-25.521c-5.875 0-10.683 4.807-10.683 10.683v9.53h46.887v-9.53c0-5.875-4.808-10.683-10.683-10.683z"/><path d="m377.178 379.698h-25.521c-5.875 0-10.683 4.807-10.683 10.683v9.53h46.887v-9.53c0-5.875-4.807-10.683-10.683-10.683z"/></g><path d="m173.326 327.116v-95.743c0-.554-.449-1.002-1.002-1.002h-71.486c-.553 0-1.002.449-1.002 1.002v95.743c0 .554.449 1.002 1.002 1.002h71.486c.554 0 1.002-.448 1.002-1.002z" fill="#4fabf7"/><path d="m173.326 304.77v-51.05c0-12.895-10.454-23.349-23.349-23.349h-26.793c-12.895 0-23.349 10.454-23.349 23.349v51.05c0 12.895 10.454 23.349 23.349 23.349h26.793c12.896-.001 23.349-10.454 23.349-23.349z" fill="#2e8be6"/><path d="m401.163 327.116v-95.743c0-.554-.449-1.002-1.002-1.002h-71.486c-.553 0-1.002.449-1.002 1.002v95.743c0 .554.449 1.002 1.002 1.002h71.486c.553 0 1.002-.448 1.002-1.002z" fill="#4fabf7"/><path d="m401.163 304.77v-51.05c0-12.895-10.454-23.349-23.349-23.349h-26.793c-12.895 0-23.349 10.454-23.349 23.349v51.05c0 12.895 10.454 23.349 23.349 23.349h26.793c12.895-.001 23.349-10.454 23.349-23.349z" fill="#2e8be6"/><path d="m128.51 311.265c-1.008 0-2.032-.204-3.015-.636-3.792-1.667-5.515-6.093-3.848-9.885l16.933-38.518h-15.487c-4.143 0-7.5-3.357-7.5-7.5s3.357-7.5 7.5-7.5h26.977c2.533 0 4.895 1.279 6.28 3.4s1.605 4.799.586 7.118l-21.556 49.036c-1.235 2.811-3.985 4.485-6.87 4.485z" fill="#dae2fe"/><path d="m356.346 311.265c-1.008 0-2.032-.204-3.015-.636-3.792-1.667-5.515-6.093-3.848-9.885l16.933-38.518h-15.487c-4.143 0-7.5-3.357-7.5-7.5s3.357-7.5 7.5-7.5h26.977c2.533 0 4.895 1.279 6.28 3.4s1.605 4.799.586 7.118l-21.556 49.036c-1.235 2.811-3.985 4.485-6.87 4.485z" fill="#dae2fe"/><path d="m192.033 460.252h-14.325c-4.143 0-7.5 3.358-7.5 7.5 0 4.143 3.357 7.5 7.5 7.5h14.325z" fill="#222d5b"/><path d="m322.524 460.252h-14.325v15h14.325c4.143 0 7.5-3.357 7.5-7.5s-3.358-7.5-7.5-7.5z" fill="#222d5b"/><path d="m191.259 504.772c18.972 4.712 38.811 7.228 59.24 7.228 20.155 0 39.734-2.451 58.474-7.041v-44.707h-117.714z" fill="#49d88b"/><path d="m191.259 460.252v44.52c18.852 4.682 38.561 7.193 58.854 7.225-11.714-11.716-7.333-22.085-3.443-27.43 1.611-2.213 1.887-5.188.567-7.586-4.796-8.717 2.876-16.726 2.878-16.729z" fill="#38c674"/><path d="m206.126 507.981c14.392 2.633 29.22 4.019 44.373 4.019 14.883 0 29.455-1.33 43.607-3.872v-47.876h-87.98z" fill="#38c674"/><path d="m206.126 460.252v47.729c14.269 2.611 28.968 3.991 43.986 4.015-11.712-11.715-7.332-22.084-3.441-27.428 1.611-2.213 1.887-5.188.567-7.586-4.796-8.717 2.876-16.726 2.878-16.729h-43.99z" fill="#21b75d"/><path d="m220.623 460.252c4.455 11.964 15.978 20.487 29.493 20.487s25.038-8.523 29.493-20.487z" fill="#49d88b"/><path d="m336 151.963c1.955 1.027 4.238-.632 3.865-2.809l-2.914-16.99c-3.826-.663-4.589-4.421-4.589-4.421-19.875 3.5-21.5-15.875-21.5-15.875-2.965-.371-4.643-1.53-5.586-2.842l-17.202 2.5c-2.185.317-3.058 3.002-1.476 4.544l13.069 12.739c.628.612.915 1.494.766 2.358l-3.085 17.988c-.373 2.176 1.911 3.836 3.865 2.809l16.154-8.493c.776-.408 1.703-.408 2.479 0z" fill="#ff9100"/><path d="m337.246 157.277c-1.218 0-2.441-.294-3.573-.889l-15.066-7.922-15.066 7.922c-2.604 1.368-5.694 1.143-8.071-.584s-3.546-4.599-3.049-7.495l2.877-16.778-12.19-11.882c-2.103-2.05-2.847-5.06-1.939-7.854.907-2.795 3.277-4.794 6.185-5.218l16.847-2.447 7.534-15.265c1.301-2.636 3.934-4.271 6.872-4.271s5.571 1.636 6.872 4.271l7.534 15.266 16.845 2.447c2.91.424 5.28 2.423 6.188 5.218s.164 5.805-1.939 7.855l-12.19 11.881 2.877 16.778c.497 2.896-.672 5.768-3.049 7.495-1.344.976-2.916 1.472-4.499 1.472zm-2.308-7.278h.01zm-16.332-11.836c1.225 0 2.452.294 3.569.882l11.962 6.29-2.284-13.324c-.428-2.484.395-5.021 2.202-6.782l9.681-9.436-13.376-1.943c-2.498-.363-4.655-1.931-5.772-4.193l-5.982-12.12-5.982 12.121c-1.115 2.262-3.272 3.829-5.771 4.192l-13.376 1.943 9.68 9.436c1.808 1.762 2.631 4.298 2.203 6.785l-2.284 13.321 11.964-6.291c1.116-.587 2.341-.881 3.566-.881z" fill="#ffdd40"/><path d="m287.354 106.577c-2.908.424-5.278 2.423-6.185 5.218s-.164 5.805 1.939 7.854l12.189 11.882-2.877 16.778c-.497 2.896.672 5.769 3.049 7.495 2.377 1.728 5.468 1.952 8.071.584l15.066-7.922 15.066 7.922c1.132.595 2.355.889 3.573.889 1.583 0 3.154-.496 4.498-1.473 2.377-1.727 3.546-4.599 3.049-7.495l-2.877-16.778c-8.196 2.913-9.554-3.788-9.554-3.788-.003.001-.006.001-.01.002-.559 1.329-.751 2.804-.5 4.266l2.284 13.324-11.962-6.29c-1.117-.588-2.344-.882-3.569-.882s-2.449.294-3.566.881l-11.964 6.291 2.284-13.321c.428-2.487-.396-5.023-2.203-6.785l-9.68-9.436 13.376-1.943c1.52-.221 2.909-.892 4.018-1.889-.006-.055-.009-.092-.009-.092-8-1-6.662-7.739-6.662-7.739z" fill="#ffc839"/><path d="m214.4 116.07c1.581-1.541.709-4.226-1.476-4.544l-18.061-2.624c-.867-.126-1.618-.671-2.006-1.457l-8.077-16.366c-.977-1.98-3.8-1.98-4.778 0l-8.077 16.366c-.388.786-1.138 1.331-2.006 1.457l-18.06 2.624c-2.185.317-3.058 3.003-1.476 4.544l13.069 12.739c.628.612.914 1.494.766 2.358l-3.085 17.988c-.373 2.176 1.911 3.836 3.865 2.808l16.154-8.493c.776-.408 1.703-.408 2.479 0l16.154 8.493c1.954 1.027 4.238-.632 3.865-2.808l-3.085-17.988c-.148-.864.138-1.746.766-2.358z" fill="#ffb332"/><path d="m199.785 151.963c1.955 1.027 4.238-.632 3.865-2.809l-2.914-16.99c-3.826-.663-4.589-4.421-4.589-4.421-19.875 3.5-21.5-15.875-21.5-15.875-2.965-.371-4.643-1.53-5.586-2.842l-17.202 2.5c-2.185.317-3.058 3.002-1.476 4.544l13.069 12.739c.628.612.914 1.494.766 2.358l-3.085 17.988c-.373 2.176 1.911 3.836 3.865 2.809l16.154-8.493c.776-.408 1.703-.408 2.479 0z" fill="#ff9100"/><path d="m201.031 157.277c-1.218 0-2.441-.294-3.573-.889l-15.066-7.922-15.066 7.922c-2.604 1.368-5.694 1.143-8.071-.584s-3.546-4.599-3.049-7.495l2.877-16.778-12.189-11.882c-2.104-2.05-2.847-5.06-1.939-7.854.907-2.795 3.277-4.794 6.186-5.218l16.847-2.447 7.534-15.265c1.301-2.636 3.935-4.271 6.872-4.271s5.571 1.636 6.872 4.271l7.534 15.266 16.845 2.447c2.91.424 5.28 2.423 6.188 5.218s.164 5.805-1.939 7.855l-12.189 11.881 2.877 16.778c.497 2.896-.672 5.768-3.049 7.495-1.347.976-2.919 1.472-4.502 1.472zm-2.308-7.278h.01zm-16.332-11.836c1.226 0 2.452.294 3.569.882l11.962 6.29-2.284-13.324c-.428-2.484.395-5.021 2.202-6.782l9.681-9.436-13.376-1.943c-2.498-.363-4.655-1.931-5.771-4.193l-5.981-12.12-5.982 12.121c-1.115 2.262-3.273 3.829-5.771 4.192l-13.376 1.943 9.68 9.436c1.808 1.762 2.631 4.298 2.203 6.785l-2.284 13.321 11.964-6.291c1.114-.587 2.339-.881 3.564-.881z" fill="#ffdd40"/><path d="m151.139 106.577c-2.908.424-5.278 2.423-6.186 5.218-.907 2.795-.164 5.805 1.939 7.854l12.189 11.882-2.877 16.778c-.497 2.896.672 5.769 3.049 7.495 2.377 1.728 5.468 1.952 8.071.584l15.066-7.922 15.066 7.922c1.132.595 2.355.889 3.573.889 1.583 0 3.154-.496 4.498-1.473 2.377-1.727 3.546-4.599 3.049-7.495l-2.877-16.778c-8.196 2.913-9.554-3.788-9.554-3.788-.003.001-.006.001-.01.002-.56 1.329-.751 2.804-.5 4.266l2.284 13.324-11.962-6.29c-1.117-.588-2.344-.882-3.569-.882s-2.449.294-3.565.881l-11.964 6.291 2.284-13.321c.428-2.487-.395-5.023-2.203-6.785l-9.68-9.436 13.376-1.943c1.52-.221 2.909-.892 4.018-1.889-.006-.055-.009-.092-.009-.092-8-1-6.662-7.739-6.662-7.739z" fill="#ffc839"/><path d="m204.071 82.538c-2.294-2.235-1.028-6.13 2.141-6.591l26.197-3.807c1.258-.183 2.346-.973 2.909-2.114l11.716-23.738c1.417-2.872 5.512-2.872 6.93 0l11.715 23.738c.563 1.14 1.651 1.931 2.91 2.114l26.196 3.807c3.169.461 4.435 4.355 2.141 6.591l-18.956 18.478c-.911.888-1.326 2.167-1.111 3.42l4.475 26.091c.542 3.157-2.772 5.564-5.607 4.074l-23.431-12.318c-1.126-.592-2.47-.592-3.596 0l-23.43 12.317c-2.835 1.49-6.148-.917-5.607-4.074l4.475-26.091c.215-1.253-.201-2.532-1.111-3.42z" fill="#ffb332"/><path d="m281.335 130.526-4.415-25.745c-3.47-.609-4.64-3.58-4.64-3.58-31.917 3.166-35.167-25.584-35.167-25.584-3.114-.459-4.705-1.848-5.494-3.363l-25.406 3.692c-3.169.461-4.435 4.355-2.141 6.591l18.956 18.478c.911.888 1.326 2.166 1.112 3.42l-4.475 26.091c-.541 3.157 2.772 5.564 5.607 4.074l23.431-12.318c1.126-.592 2.471-.592 3.596 0l23.431 12.318c2.833 1.49 6.146-.917 5.605-4.074z" fill="#ff9100"/><path d="m223.464 140.053c-1.83 0-3.647-.573-5.201-1.702-2.75-1.997-4.102-5.319-3.527-8.669l4.374-25.503-18.528-18.061c-2.434-2.372-3.294-5.854-2.243-9.087 1.051-3.232 3.793-5.544 7.157-6.032l25.604-3.721 11.452-23.203c1.504-3.048 4.55-4.94 7.948-4.94s6.444 1.893 7.948 4.94l11.452 23.203 25.605 3.721c3.363.488 6.105 2.8 7.156 6.032 1.051 3.233.19 6.716-2.244 9.088l-18.527 18.06 4.374 25.502c.574 3.351-.777 6.673-3.527 8.67-2.749 1.998-6.323 2.257-9.334.675l-22.902-12.04-22.903 12.04c-1.31.687-2.726 1.027-4.134 1.027zm27.034-23.216c1.417 0 2.833.34 4.125 1.019l21.395 11.247-4.086-23.821c-.493-2.878.46-5.81 2.55-7.847l17.307-16.87-23.918-3.476c-2.888-.419-5.384-2.232-6.675-4.851l-10.696-21.673-10.697 21.674c-1.29 2.616-3.785 4.43-6.674 4.85l-23.918 3.476 17.308 16.871c2.089 2.037 3.042 4.97 2.549 7.845l-4.086 23.822 21.395-11.247c1.288-.679 2.705-1.019 4.121-1.019zm-42.937-37.88.003.003z" fill="#ffdd40"/><path d="m205.495 70.999c-3.364.488-6.106 2.8-7.157 6.032-1.051 3.233-.191 6.715 2.243 9.087l18.528 18.061-4.374 25.503c-.574 3.35.777 6.672 3.527 8.669 1.554 1.129 3.371 1.702 5.201 1.702 1.408 0 2.824-.34 4.132-1.027l22.903-12.04 22.902 12.04c3.011 1.582 6.585 1.323 9.334-.675 2.75-1.997 4.102-5.319 3.527-8.67l-4.374-25.502c-7.411 2.685-9.61-2.977-9.61-2.977-.029.002-.055.003-.084.006-.395 1.301-.5 2.692-.264 4.073l4.086 23.821-21.395-11.247c-1.292-.679-2.708-1.019-4.125-1.019-1.416 0-2.833.34-4.123 1.019l-21.395 11.247 4.086-23.822c.493-2.875-.46-5.808-2.549-7.845l-17.304-16.871 23.918-3.476c1.384-.201 2.673-.729 3.787-1.505-7.68-1.259-5.816-8.305-5.816-8.305z" fill="#ffc839"/><path d="m193.54 227.739v103.011c0 9.71 7.872 17.582 17.582 17.582-8.074-12.453 3.634-20.213 3.634-20.213v-97.747c-13.523-5.748-3.634-20.213-3.634-20.213-9.71-.001-17.582 7.87-17.582 17.58z" fill="#ffc839"/><path d="m287.244 327.116v-95.743c0-.554-.449-1.002-1.002-1.002h-71.486c-.553 0-1.002.449-1.002 1.002v95.743c0 .554.449 1.002 1.002 1.002h71.486c.554 0 1.002-.448 1.002-1.002z" fill="#4fabf7"/><path d="m287.244 304.77v-51.05c0-12.895-10.454-23.349-23.349-23.349h-26.793c-12.895 0-23.349 10.454-23.349 23.349v51.05c0 12.895 10.454 23.349 23.349 23.349h26.793c12.896-.001 23.349-10.454 23.349-23.349z" fill="#2e8be6"/><path d="m242.428 311.265c-1.008 0-2.032-.204-3.015-.636-3.792-1.667-5.515-6.093-3.848-9.885l16.933-38.518h-15.487c-4.143 0-7.5-3.357-7.5-7.5s3.357-7.5 7.5-7.5h26.977c2.533 0 4.896 1.279 6.28 3.4 1.385 2.121 1.605 4.799.586 7.118l-21.556 49.036c-1.235 2.811-3.985 4.485-6.87 4.485z" fill="#dae2fe"/></svg>